<?xml version="1.0" encoding="UTF-8" standalone="no"?>
<svg
   version="1.0"
   width="210.93164pt"
   height="268.5871pt"
   viewBox="0 0 210.93164 268.5871"
   preserveAspectRatio="xMidYMid"
   id="svg214"
   sodipodi:docname="NairobiLUG.svg"
   inkscape:version="1.2.1 (9c6d41e410, 2022-07-14)"
   xmlns:inkscape="http://www.inkscape.org/namespaces/inkscape"
   xmlns:sodipodi="http://sodipodi.sourceforge.net/DTD/sodipodi-0.dtd"
   xmlns="http://www.w3.org/2000/svg"
   xmlns:svg="http://www.w3.org/2000/svg"
   xmlns:rdf="http://www.w3.org/1999/02/22-rdf-syntax-ns#"
   xmlns:cc="http://creativecommons.org/ns#"
   xmlns:dc="http://purl.org/dc/elements/1.1/">
  <title
     id="title3063">Nairobi Linux Users Group Logo</title>
  <defs
     id="defs218">
    <rect
       x="-644.5614"
       y="-366.66666"
       width="1779.2982"
       height="412.98245"
       id="rect3119" />
    <rect
       x="-644.5614"
       y="-366.66666"
       width="1779.2982"
       height="412.98245"
       id="rect3119-3" />
  </defs>
  <sodipodi:namedview
     id="namedview216"
     pagecolor="#000000"
     bordercolor="#666666"
     borderopacity="1.0"
     inkscape:showpageshadow="2"
     inkscape:pageopacity="0"
     inkscape:pagecheckerboard="true"
     inkscape:deskcolor="#d1d1d1"
     inkscape:document-units="pt"
     showgrid="false"
     inkscape:zoom="0.73281975"
     inkscape:cx="131.00084"
     inkscape:cy="192.40748"
     inkscape:window-width="1366"
     inkscape:window-height="703"
     inkscape:window-x="0"
     inkscape:window-y="0"
     inkscape:window-maximized="1"
     inkscape:current-layer="svg214" />
  <metadata
     id="metadata198">
Created by potrace 1.12, written by Peter Selinger 2001-2015
<rdf:RDF>
  <cc:Work
     rdf:about="">
    <cc:license
       rdf:resource="http://artlibre.org/licence/lal" />
    <dc:title>Nairobi Linux Users Group Logo</dc:title>
    <dc:publisher>
      <cc:Agent>
        <dc:title>Nairobi Linux Users Group </dc:title>
      </cc:Agent>
    </dc:publisher>
    <dc:contributor>
      <cc:Agent>
        <dc:title>Bravo Edison, Benson Muite, Antony Oduor</dc:title>
      </cc:Agent>
    </dc:contributor>
    <dc:description>Circle around a winking GNU with the name of the group</dc:description>
  </cc:Work>
  <cc:License
     rdf:about="http://artlibre.org/licence/lal">
    <cc:permits
       rdf:resource="http://creativecommons.org/ns#Reproduction" />
    <cc:permits
       rdf:resource="http://creativecommons.org/ns#Distribution" />
    <cc:permits
       rdf:resource="http://creativecommons.org/ns#DerivativeWorks" />
    <cc:requires
       rdf:resource="http://creativecommons.org/ns#ShareAlike" />
    <cc:requires
       rdf:resource="http://creativecommons.org/ns#Notice" />
    <cc:requires
       rdf:resource="http://creativecommons.org/ns#Attribution" />
  </cc:License>
</rdf:RDF>
</metadata>
  <g
     transform="matrix(0.01814286,0,0,-0.01814286,42.025301,206.16763)"
     fill="#000000"
     stroke="none"
     id="g212"
     style="fill:#ffffff;fill-opacity:1;stroke:#ffffff;stroke-opacity:1">
    <path
       d="M 1425,7139 C 1222,7118 1032,7063 845,6971 501,6802 311,6612 150,6278 83,6138 59,6068 28,5925 9,5838 6,5795 6,5595 6,5302 27,5137 87,4945 152,4738 315,4484 505,4295 674,4125 861,4030 1110,3984 1162,3974 1211,3962 1218,3957 1226,3951 1230,3920 1230,3866 1230,3773 1214,3730 1155,3660 1108,3605 1095,3572 1086,3496 1077,3418 1054,3383 972,3325 868,3251 820,3168 820,3060 820,2970 875,2947 972,2996 1027,3024 1075,3028 1181,3015 1259,3006 1292,3019 1336,3077 1375,3129 1399,3147 1441,3158 L 1477,3167 1472,2915 C 1464,2507 1496,2307 1612,2030 1753,1697 1988,1413 2371,1115 2422,1075 2400,1102 2263,1245 1978,1545 1878,1675 1770,1890 1693,2044 1630,2249 1593,2465 1578,2557 1575,2624 1577,2877 1578,3067 1582,3186 1589,3198 1596,3211 1615,3221 1642,3225 1723,3239 1835,3280 1914,3325 1958,3350 1997,3367 2000,3363 2016,3345 2050,3078 2050,2978 2050,2849 2058,2824 2102,2812 2143,2802 2155,2771 2170,2629 2176,2572 2185,2509 2191,2488 2200,2452 2201,2452 2263,2445 2350,2435 2366,2422 2375,2358 2385,2285 2409,2260 2471,2260 2497,2260 2521,2256 2524,2251 2530,2242 2505,2189 2472,2143 2439,2096 2435,2046 2459,1950 2476,1885 2479,1850 2474,1799 2468,1740 2471,1725 2493,1676 2522,1613 2558,1586 2626,1576 2697,1567 2710,1556 2710,1505 2710,1454 2726,1440 2784,1440 2828,1440 2897,1414 2904,1393 2912,1374 2896,1345 2848,1290 2790,1224 2776,1185 2791,1136 2811,1076 2891,997 3028,902 3159,811 3190,781 3190,746 3190,718 3138,669 3077,640 3008,608 2980,538 3011,477 3031,440 3089,372 3122,349 L 3153,326 3126,371 C 3078,449 3067,477 3074,503 3082,537 3106,560 3134,560 3179,560 3264,613 3287,655 3321,716 3316,753 3260,868 3233,924 3213,970 3217,970 3220,970 3246,950 3275,926 3310,896 3340,857 3365,809 3387,767 3426,714 3460,681 L 3517,624 3459,536 C 3361,388 3362,308 3464,212 3494,183 3521,160 3523,160 3526,160 3512,191 3493,229 3454,304 3454,327 3491,374 3502,388 3524,407 3540,415 L 3567,429 3563,386 C 3556,326 3577,291 3684,185 3811,58 3893,15 3990,22 L 4035,25 3978,52 C 3933,73 3917,87 3900,120 3888,143 3881,164 3884,167 3886,170 3904,160 3922,146 3999,88 4107,56 4300,36 L 4355,30 4278,71 C 4236,93 4194,123 4185,137 4167,164 4148,220 4157,220 4160,220 4200,196 4245,166 4346,100 4399,81 4499,73 4585,67 4664,79 4730,109 L 4775,129 4700,124 C 4659,121 4608,122 4587,127 L 4549,135 4612,177 C 4689,228 4790,326 4836,394 4855,422 4870,448 4870,452 4870,456 4849,443 4822,423 4778,389 4652,325 4644,332 4643,334 4657,355 4676,379 4694,403 4710,426 4710,431 4710,435 4713,445 4716,454 4721,468 4718,468 4690,459 4638,440 4557,453 4509,486 4455,523 4383,614 4368,662 4354,709 4359,715 4472,791 4611,885 4643,932 4644,1040 4644,1095 4638,1118 4602,1196 4579,1246 4560,1293 4560,1301 4560,1317 4611,1405 4639,1437 4661,1463 4770,1490 4849,1490 4933,1490 5003,1508 5027,1535 5052,1564 5080,1653 5080,1705 5080,1752 5043,1876 5022,1896 5014,1905 4983,1929 4954,1951 L 4902,1989 4921,2039 C 4931,2067 4947,2118 4956,2153 L 4972,2217 5028,2219 C 5112,2221 5212,2264 5279,2326 5332,2375 5334,2378 5338,2438 5342,2493 5340,2504 5316,2534 5302,2553 5270,2583 5245,2601 5221,2618 5189,2650 5176,2671 L 5151,2709 5218,2756 C 5255,2783 5326,2845 5377,2895 5463,2980 5469,2989 5490,3059 5510,3123 5512,3147 5507,3239 5498,3389 5472,3469 5417,3514 5348,3570 5317,3580 5256,3564 5228,3556 5178,3547 5145,3544 5089,3538 5082,3540 5052,3565 5016,3595 5003,3633 4990,3749 4985,3792 4972,3852 4961,3884 4947,3925 4945,3940 4954,3940 4961,3940 5022,3904 5089,3860 5243,3759 5293,3734 5374,3715 5409,3707 5478,3681 5526,3658 L 5614,3615 5784,3611 C 5894,3609 5972,3612 6007,3620 6095,3639 6160,3711 6160,3788 6160,3831 6132,3850 6072,3850 6020,3850 6001,3860 5978,3903 5966,3925 5939,4052 5945,4058 5946,4060 5998,4074 6059,4090 6376,4173 6573,4336 6786,4690 6956,4972 7011,5204 6997,5575 6981,5983 6899,6251 6714,6501 6501,6789 6270,6952 5934,7049 5745,7104 5408,7118 5217,7079 5082,7052 5013,7021 4845,6915 4705,6826 4629,6790 4587,6790 4567,6791 4530,6803 4478,6825 4455,6834 4455,6812 4478,6745 4504,6671 4546,6624 4620,6587 L 4685,6555 H 4895 C 5072,6556 5122,6559 5215,6578 5411,6618 5543,6603 5726,6520 5936,6425 6121,6209 6198,5970 6230,5872 6240,5798 6240,5671 6240,5445 6192,5285 6093,5179 5998,5078 5914,5061 5796,5119 5691,5171 5607,5258 5412,5520 5080,5966 4967,6082 4775,6176 4624,6250 4539,6270 4380,6270 4233,6270 4183,6258 4064,6195 3970,6146 3895,6092 3803,6009 3767,5977 3734,5950 3728,5950 3716,5950 3684,5971 3545,6075 3333,6234 3199,6280 2956,6280 2646,6280 2454,6203 2245,5995 2196,5946 2043,5779 1906,5625 1530,5202 1460,5136 1337,5080 1207,5021 1053,5087 945,5250 866,5369 857,5407 856,5620 855,5814 857,5827 910,5960 945,6049 1038,6213 1090,6277 1243,6466 1596,6622 1875,6623 1947,6624 2014,6616 2115,6596 2226,6573 2282,6568 2385,6568 2709,6568 2854,6648 2877,6838 L 2883,6889 2824,6865 C 2784,6848 2745,6840 2705,6840 2633,6840 2584,6861 2392,6978 2250,7064 2185,7093 2081,7115 1929,7146 1608,7158 1425,7139 Z M 2020,7060 C 2127,7041 2227,7003 2339,6937 2397,6904 2483,6855 2530,6831 2610,6788 2619,6786 2695,6786 2740,6786 2785,6791 2798,6798 2854,6830 2785,6730 2726,6695 2640,6645 2589,6635 2410,6636 2276,6636 2226,6641 2145,6659 1945,6704 1767,6697 1545,6634 1366,6584 1178,6470 1069,6345 964,6226 841,5987 806,5832 785,5738 784,5478 805,5397 831,5296 887,5201 964,5124 1060,5028 1126,4997 1231,4998 1319,5000 1366,5014 1447,5061 1538,5116 1599,5178 1920,5545 2260,5934 2356,6033 2462,6103 2598,6192 2712,6221 2940,6223 3074,6224 3106,6221 3178,6201 3340,6155 3481,6068 3632,5919 L 3710,5842 3769,5847 C 3849,5855 3869,5848 3929,5794 4001,5729 4020,5688 4020,5596 4020,5504 4031,5479 4081,5451 4102,5439 4126,5420 4134,5409 4146,5391 4148,5391 4154,5406 4158,5417 4147,5434 4118,5461 L 4075,5500 V 5608 C 4075,5698 4071,5721 4053,5755 4027,5804 3972,5857 3905,5900 3863,5926 3860,5930 3885,5924 4003,5897 4216,5770 4286,5683 4331,5628 4358,5544 4347,5498 4335,5450 4277,5380 4204,5325 4082,5233 4068,5160 4159,5094 4186,5075 4210,5051 4213,5039 4222,5007 4200,4961 4169,4945 4127,4923 4113,4927 4138,4953 4152,4968 4160,4989 4160,5011 4160,5075 4078,5139 3935,5185 3783,5235 3711,5294 3686,5393 3653,5517 3649,5666 3676,5765 3680,5780 3675,5778 3656,5756 L 3631,5726 3535,5816 C 3368,5971 3286,6018 3137,6041 2969,6067 2781,6036 2615,5953 2429,5860 2294,5745 2087,5505 1773,5141 1688,5066 1445,4935 1385,4903 1332,4864 1285,4819 L 1215,4751 1160,4816 C 1108,4877 1103,4881 1070,4876 1051,4873 1010,4868 979,4865 L 923,4859 910,4932 C 890,5048 891,5046 804,5066 L 727,5084 733,5156 C 737,5195 742,5252 746,5282 L 752,5336 696,5370 C 665,5389 640,5408 640,5414 640,5419 659,5455 681,5494 L 722,5565 677,5650 631,5735 691,5831 750,5928 728,6020 705,6113 750,6149 C 845,6227 839,6217 850,6319 855,6371 864,6417 871,6421 878,6425 920,6441 966,6456 L 1049,6484 1086,6572 1124,6660 H 1231 1338 L 1387,6721 1437,6781 1587,6784 1736,6787 1785,6820 C 1839,6857 1823,6859 1927,6799 L 1969,6775 2047,6813 2125,6851 2269,6801 C 2348,6773 2415,6752 2417,6754 2419,6756 2379,6791 2327,6832 L 2233,6907 2144,6919 C 2095,6925 2011,6940 1957,6952 L 1859,6974 1748,6941 1638,6909 1540,6931 1443,6953 1348,6902 1254,6851 1154,6856 1055,6862 1010,6784 C 959,6697 970,6703 818,6685 L 761,6679 709,6591 C 661,6508 653,6501 594,6472 559,6454 530,6436 530,6430 530,6424 523,6374 515,6317 L 500,6215 444,6164 389,6113 414,6014 439,5915 388,5855 C 359,5822 330,5787 322,5778 310,5763 315,5752 369,5681 L 430,5602 365,5550 300,5498 367,5443 C 478,5353 477,5370 380,5281 L 295,5202 385,5175 C 435,5161 481,5147 488,5144 497,5142 480,5112 436,5055 400,5009 374,4969 378,4966 382,4964 413,4958 447,4955 480,4951 513,4944 519,4940 527,4935 515,4906 480,4846 453,4798 430,4757 430,4755 430,4752 471,4749 520,4748 L 610,4745 564,4676 518,4607 576,4614 C 609,4618 654,4623 678,4627 704,4630 720,4628 720,4622 720,4616 711,4574 700,4528 689,4482 680,4441 680,4437 680,4432 714,4456 755,4490 804,4530 832,4547 834,4538 837,4531 848,4478 861,4420 873,4362 884,4314 885,4312 887,4310 910,4345 936,4389 963,4434 987,4470 990,4470 993,4470 1004,4440 1014,4403 1023,4365 1036,4318 1041,4297 L 1051,4259 1113,4336 1175,4414 1180,4305 1185,4197 1249,4288 C 1284,4339 1315,4379 1317,4377 1319,4375 1304,4298 1283,4206 1251,4063 1243,4040 1227,4040 1191,4040 1014,4080 945,4103 767,4164 647,4243 504,4393 280,4628 144,4893 87,5205 68,5308 65,5361 65,5585 65,5837 66,5848 93,5951 194,6340 421,6643 770,6856 976,6981 1137,7036 1405,7074 1465,7082 1957,7072 2020,7060 Z M 5803,7020 C 5999,6987 6149,6929 6287,6833 6405,6751 6611,6541 6691,6421 6877,6143 6933,5935 6933,5535 6932,5190 6905,5057 6789,4830 6585,4429 6347,4214 6042,4154 6000,4146 5955,4137 5944,4135 5926,4131 5918,4140 5897,4188 5876,4235 5824,4458 5833,4466 5834,4467 5862,4426 5894,4374 5926,4322 5955,4280 5958,4280 5961,4280 5960,4327 5956,4385 5952,4443 5952,4490 5954,4490 5957,4490 5981,4462 6007,4427 6033,4392 6059,4363 6065,4361 6070,4360 6080,4385 6087,4417 6095,4449 6105,4493 6111,4515 L 6122,4554 6168,4470 6214,4385 6237,4499 C 6250,4562 6261,4615 6263,4616 6264,4618 6293,4595 6327,4565 6361,4535 6390,4510 6393,4510 6395,4510 6388,4550 6377,4600 6366,4649 6359,4692 6361,4694 6363,4696 6396,4693 6433,4688 6534,4674 6536,4676 6496,4740 6476,4770 6460,4798 6460,4803 6460,4807 6494,4810 6535,4810 6576,4810 6610,4813 6610,4818 6610,4822 6590,4862 6566,4907 6538,4961 6527,4991 6535,4994 6542,4996 6573,5001 6604,5005 6671,5014 6671,5013 6605,5104 6580,5139 6560,5172 6560,5178 6560,5183 6596,5198 6640,5211 6684,5223 6720,5238 6720,5243 6720,5248 6689,5284 6651,5324 L 6581,5395 6651,5454 C 6689,5487 6720,5517 6720,5521 6720,5525 6698,5548 6670,5571 6643,5594 6620,5617 6620,5622 6620,5627 6642,5663 6670,5702 6700,5745 6717,5777 6712,5784 6707,5790 6682,5821 6657,5853 6631,5886 6610,5919 6610,5928 6611,5938 6619,5981 6630,6025 L 6649,6105 6600,6155 6551,6205 6538,6310 6525,6414 6469,6447 C 6421,6476 6407,6491 6367,6564 L 6320,6648 6253,6655 C 6146,6665 6148,6665 6105,6746 L 6065,6822 5979,6815 5893,6809 5810,6858 5726,6907 5656,6889 C 5562,6864 5548,6865 5447,6899 L 5361,6928 5290,6910 C 5250,6900 5186,6886 5146,6880 5107,6874 5065,6867 5053,6864 5034,6860 4849,6710 4863,6710 4866,6710 4927,6733 5000,6760 L 5131,6811 5199,6774 5266,6737 5325,6774 5383,6812 5429,6779 C 5475,6747 5476,6747 5604,6745 L 5733,6743 5774,6687 5815,6631 5910,6628 6005,6625 6038,6544 6072,6462 6155,6430 6237,6398 6244,6338 C 6247,6304 6250,6263 6250,6245 6250,6218 6259,6205 6309,6164 6342,6137 6369,6108 6369,6100 6369,6092 6361,6051 6351,6009 L 6333,5932 6382,5846 C 6408,5799 6430,5754 6430,5745 6430,5737 6414,5697 6394,5657 L 6357,5583 6394,5518 C 6414,5482 6430,5449 6430,5444 6430,5439 6407,5419 6379,5401 6340,5374 6330,5361 6334,5346 6336,5334 6342,5281 6345,5228 6351,5150 6350,5129 6339,5126 6331,5123 6300,5114 6269,5106 6215,5091 6212,5088 6205,5053 6202,5032 6194,4993 6188,4966 L 6178,4918 6100,4924 6022,4931 5978,4876 C 5955,4846 5931,4821 5927,4821 5923,4820 5895,4846 5866,4878 5824,4923 5790,4946 5708,4987 5551,5065 5421,5195 5185,5509 5006,5748 4906,5841 4715,5948 4562,6033 4424,6065 4309,6041 4249,6029 4110,5979 4110,5969 4110,5966 4146,5940 4189,5912 4287,5848 4400,5740 4430,5680 4448,5646 4454,5618 4454,5565 4455,5489 4442,5456 4389,5395 L 4358,5360 H 4453 C 4505,5360 4561,5357 4578,5354 4611,5347 4609,5351 4651,5160 4661,5112 4671,5097 4732,5037 4814,4956 4838,4909 4846,4808 4854,4722 4843,4681 4800,4621 L 4770,4580 4687,4581 C 4622,4581 4586,4576 4528,4556 4487,4542 4450,4530 4445,4530 4441,4530 4440,4556 4443,4587 4448,4631 4454,4648 4474,4664 4488,4676 4507,4705 4515,4730 4534,4784 4542,4790 4606,4790 4642,4790 4665,4784 4683,4770 4716,4744 4724,4745 4705,4773 4684,4806 4648,4820 4590,4820 4562,4820 4540,4825 4540,4830 4540,4851 4569,4896 4604,4929 4656,4979 4653,5028 4596,5049 4562,5063 4505,5049 4467,5020 4433,4993 4384,4894 4369,4822 4355,4751 4362,4543 4382,4480 4390,4455 4436,4381 4485,4315 4641,4104 4719,3979 4806,3802 4882,3646 4898,3621 4959,3561 5002,3517 5043,3487 5073,3475 5116,3459 5123,3459 5187,3474 5300,3502 5303,3502 5349,3478 5421,3441 5435,3402 5435,3245 5435,3128 5432,3110 5410,3065 5397,3038 5353,2983 5314,2943 5205,2834 5082,2759 4895,2689 L 4795,2651 H 4845 C 4890,2650 4979,2661 5052,2676 5074,2680 5083,2675 5110,2636 5127,2611 5165,2575 5194,2556 5281,2501 5291,2431 5220,2382 5165,2345 5117,2339 4886,2336 4673,2334 4661,2333 4540,2302 4296,2239 4189,2229 4029,2256 3907,2276 3842,2306 3775,2374 3716,2433 3590,2620 3489,2799 3454,2862 3407,2933 3384,2958 3345,3002 3341,3004 3279,3007 L 3215,3010 3262,2994 C 3287,2985 3322,2963 3339,2946 3357,2928 3417,2823 3474,2712 L 3577,2512 3583,2388 C 3595,2174 3625,2051 3706,1890 3750,1801 3783,1772 3856,1758 3951,1741 4051,1765 4235,1850 4401,1927 4581,1980 4674,1980 4732,1980 4832,1954 4935,1913 4988,1891 5006,1879 5011,1860 5034,1779 5005,1599 4967,1578 4954,1572 4909,1569 4846,1573 4654,1582 4285,1542 4025,1484 3856,1446 3789,1443 3700,1470 3566,1510 3480,1582 3441,1684 3396,1805 3391,1945 3424,2165 3454,2361 3463,2472 3456,2568 3449,2668 3428,2795 3417,2807 3404,2820 3403,2804 3412,2730 3425,2634 3415,2321 3395,2160 3343,1741 3342,1695 3385,1602 3414,1539 3481,1466 3535,1437 3572,1417 3590,1415 3770,1414 4024,1413 4008,1415 4070,1375 4139,1331 4168,1331 4256,1375 4302,1398 4338,1410 4365,1409 4417,1408 4486,1387 4483,1372 4481,1366 4479,1337 4478,1307 4476,1258 4480,1246 4520,1186 4555,1132 4564,1107 4568,1062 4574,992 4558,963 4476,891 L 4415,838 4412,866 C 4406,923 4400,924 4369,876 4335,826 4240,750 4254,786 4302,902 4311,977 4288,1055 L 4276,1095 4270,1030 C 4258,907 4197,833 4038,750 3836,644 3792,565 3860,430 3877,397 3886,370 3880,370 3874,370 3845,394 3816,423 3751,486 3730,544 3730,662 V 739 L 3677,764 C 3608,797 3522,862 3488,906 3454,951 3435,1036 3448,1083 3454,1102 3469,1135 3484,1156 3498,1177 3508,1196 3506,1198 3504,1200 3487,1194 3470,1185 3425,1162 3355,1162 3329,1186 3310,1203 3309,1211 3315,1315 L 3322,1425 3273,1373 C 3247,1344 3203,1310 3175,1297 3078,1249 3063,1211 3084,1067 L 3092,1009 3047,1040 C 2986,1081 2940,1135 2940,1166 2940,1179 2954,1218 2971,1252 3011,1331 3020,1412 2995,1461 2942,1562 2884,1607 2777,1627 2683,1644 2610,1679 2588,1718 2566,1757 2550,1881 2554,1980 2557,2068 2567,2093 2636,2189 2662,2226 2666,2256 2649,2293 2641,2311 2625,2319 2577,2329 2478,2349 2473,2352 2468,2405 2461,2465 2416,2524 2374,2528 2291,2535 2279,2541 2264,2575 2255,2596 2250,2645 2250,2702 2250,2823 2245,2837 2199,2860 2144,2889 2138,2905 2146,3022 2151,3101 2149,3139 2136,3186 2126,3224 2120,3288 2120,3353 V 3457 L 2209,3533 C 2300,3610 2350,3669 2436,3799 2476,3859 2486,3869 2492,3854 2496,3843 2513,3798 2530,3753 2559,3676 2600,3606 2663,3529 2685,3501 2681,3515 2640,3602 2556,3778 2542,3901 2580,4125 2592,4191 2603,4306 2605,4380 2610,4524 2605,4520 2575,4355 2510,4000 2307,3685 2016,3486 1887,3398 1783,3354 1590,3309 1438,3272 1380,3247 1312,3187 1232,3116 1205,3105 1149,3119 1093,3134 1047,3124 956,3078 L 897,3048 902,3100 C 907,3145 913,3158 956,3201 983,3229 1030,3267 1061,3286 1123,3323 1131,3337 1155,3444 1175,3534 1200,3586 1245,3635 1295,3689 1300,3706 1300,3823 1300,3935 1321,4024 1395,4230 1547,4654 1703,4899 1905,5032 2101,5161 2209,5208 2350,5222 2411,5228 2504,5247 2572,5267 2803,5334 2886,5343 3026,5314 3134,5291 3238,5307 3351,5361 3435,5402 3508,5425 3576,5433 L 3617,5438 3634,5377 C 3651,5318 3678,5268 3710,5242 3759,5200 3836,5159 3901,5139 4052,5094 4120,5052 4120,5005 4120,4975 4090,4950 4045,4943 4007,4937 4007,4937 4028,4919 4078,4879 4186,4888 4232,4937 4248,4954 4255,4976 4258,5018 L 4262,5077 4211,5113 C 4157,5152 4141,5185 4159,5219 4165,5230 4207,5270 4253,5308 4424,5451 4453,5510 4415,5638 4379,5757 4151,5936 3958,5996 L 3901,6013 3976,6072 C 4068,6144 4158,6194 4230,6211 4312,6230 4498,6225 4595,6201 4761,6158 4907,6061 5050,5898 5095,5847 5217,5693 5320,5555 5635,5137 5776,5016 5928,5034 6085,5053 6197,5170 6261,5385 6288,5474 6297,5688 6281,5815 6259,5979 6192,6152 6103,6277 6016,6400 5840,6538 5700,6594 5542,6657 5387,6668 5185,6630 5115,6616 5013,6607 4904,6603 4758,6598 4726,6600 4680,6615 4629,6632 4559,6685 4540,6720 4532,6735 4537,6737 4583,6737 4650,6738 4689,6756 4883,6873 5052,6976 5164,7021 5298,7040 5396,7053 5672,7043 5803,7020 Z M 4895,5274 C 5041,5244 5155,5179 5254,5072 5308,5013 5456,4807 5485,4749 5498,4724 5521,4661 5536,4609 5550,4557 5576,4488 5592,4455 5632,4375 5740,4220 5811,4140 5876,4066 5885,4047 5895,3964 5909,3846 5963,3780 6049,3780 6097,3780 6099,3772 6065,3731 6020,3678 5973,3668 5794,3672 5636,3675 5635,3676 5570,3709 5535,3727 5468,3753 5422,3767 5306,3800 5242,3830 5147,3896 5103,3926 5033,3970 4994,3991 L 4921,4031 4891,4123 4860,4214 4892,4247 4924,4280 H 4895 C 4878,4280 4834,4265 4795,4246 4757,4227 4706,4209 4683,4205 4644,4199 4640,4200 4625,4229 L 4609,4260 H 4660 C 4755,4260 4798,4306 4788,4395 4783,4434 4785,4440 4801,4440 4811,4440 4837,4422 4860,4399 4910,4348 4926,4352 4923,4414 4919,4476 4899,4513 4853,4541 4832,4553 4813,4565 4811,4567 4809,4568 4825,4589 4848,4614 4882,4650 4889,4667 4895,4714 4905,4788 4893,4894 4870,4947 4860,4970 4822,5020 4786,5058 4715,5135 4689,5193 4709,5237 4722,5265 4779,5302 4800,5296 4808,5293 4851,5284 4895,5274 Z M 4855,4068 C 4871,4011 4894,3934 4907,3896 4921,3853 4930,3803 4930,3766 V 3705 L 4872,3815 C 4840,3876 4786,3969 4752,4022 4718,4076 4690,4122 4690,4125 4690,4128 4700,4130 4713,4130 4725,4130 4751,4138 4770,4149 4789,4159 4810,4168 4816,4169 4822,4169 4839,4124 4855,4068 Z M 3724,2323 C 3826,2213 3934,2171 4140,2163 4255,2158 4276,2160 4405,2190 4570,2227 4662,2235 4831,2225 L 4955,2218 4922,2151 C 4904,2114 4886,2066 4883,2044 L 4878,2005 4739,2008 C 4573,2012 4500,1997 4340,1925 4117,1825 4070,1810 3968,1810 3900,1810 3864,1815 3835,1829 3788,1850 3723,1918 3714,1957 3710,1972 3699,1998 3689,2015 3659,2065 3627,2218 3621,2338 L 3615,2451 3645,2413 C 3661,2392 3697,2352 3724,2323 Z"
       id="path200"
       style="fill:#ffffff;fill-opacity:1;stroke:#ffffff;stroke-opacity:1" />
    <path
       d="M 3043,5183 C 3008,5139 2957,5110 2917,5110 2892,5110 2866,5092 2858,5068 2855,5061 2827,5056 2782,5054 2732,5052 2703,5046 2687,5034 2651,5007 2583,4909 2576,4873 2571,4851 2558,4835 2534,4821 2514,4809 2493,4785 2484,4763 2447,4676 2434,4657 2386,4623 2308,4567 2309,4565 2389,4605 2430,4625 2489,4666 2519,4695 2550,4724 2594,4757 2618,4769 2651,4786 2660,4796 2660,4816 2660,4847 2704,4935 2735,4966 2750,4981 2771,4990 2791,4990 2819,4990 2822,4987 2816,4968 2813,4955 2810,4908 2810,4863 2810,4789 2807,4779 2783,4749 L 2756,4717 2781,4725 C 2960,4777 3088,4970 3078,5168 L 3075,5224 Z"
       id="path202"
       style="fill:#ffffff;fill-opacity:1;stroke:#ffffff;stroke-opacity:1" />
    <path
       d="M 3525,5073 C 3534,5026 3544,5013 3588,4994 3608,4986 3630,4971 3637,4960 3647,4946 3663,4940 3691,4940 H 3731 L 3785,4828 C 3814,4766 3843,4691 3849,4663 3855,4631 3881,4575 3915,4520 3980,4416 3998,4399 3971,4467 3961,4493 3944,4551 3935,4595 3915,4685 3901,4717 3870,4743 3843,4766 3792,4875 3755,4990 3722,5091 3717,5099 3692,5077 3666,5054 3634,5056 3571,5085 L 3518,5110 Z"
       id="path204"
       style="fill:#ffffff;fill-opacity:1;stroke:#ffffff;stroke-opacity:1" />
    <path
       d="M 3004,4614 C 2993,4571 3006,4502 3033,4461 3066,4411 3165,4346 3249,4319 3302,4301 3347,4296 3475,4293 3625,4289 3677,4296 3657,4316 3653,4320 3574,4327 3482,4331 3310,4338 3284,4342 3212,4379 3132,4420 3062,4515 3044,4608 3037,4646 3013,4650 3004,4614 Z"
       id="path206"
       style="fill:#ffffff;fill-opacity:1;stroke:#ffffff;stroke-opacity:1" />
    <path
       d="M 3878,3689 C 3817,3675 3717,3625 3686,3594 3643,3550 3619,3495 3613,3422 3606,3333 3635,3254 3698,3190 3724,3163 3739,3153 3735,3165 3731,3176 3725,3207 3722,3235 3717,3280 3718,3284 3733,3271 3760,3249 3778,3265 3785,3317 3794,3385 3805,3407 3842,3430 3883,3455 3925,3455 3973,3431 3993,3421 4010,3416 4010,3420 4010,3437 3964,3483 3934,3496 3861,3527 3783,3507 3732,3444 3715,3423 3698,3409 3694,3413 3681,3425 3701,3487 3730,3527 3784,3600 3905,3638 4047,3626 4144,3617 4170,3607 4270,3540 4317,3508 4391,3463 4434,3439 4478,3416 4550,3368 4594,3335 4714,3244 4753,3226 4811,3240 L 4845,3247 4803,3255 C 4755,3263 4734,3277 4624,3373 4580,3411 4505,3467 4455,3497 4406,3528 4337,3573 4302,3598 4225,3653 4167,3675 4066,3689 3977,3702 3930,3702 3878,3689 Z"
       id="path208"
       style="fill:#ffffff;fill-opacity:1;stroke:#ffffff;stroke-opacity:1" />
    <path
       d="M 3975,3315 C 3953,3307 3934,3300 3933,3300 3932,3300 3926,3284 3920,3265 3904,3216 3915,3176 3956,3140 3993,3108 4051,3099 4090,3120 4113,3132 4124,3175 4110,3200 4101,3217 4102,3220 4120,3220 4178,3220 4299,3120 4342,3037 4354,3014 4374,2966 4387,2930 L 4410,2865 4404,2939 C 4383,3201 4172,3386 3975,3315 Z"
       id="path210"
       style="fill:#ffffff;fill-opacity:1;stroke:#ffffff;stroke-opacity:1" />
  </g>
  <path
     style="fill:none;fill-opacity:1;stroke:#ffffff;stroke-width:9.70104;stroke-linecap:round;stroke-linejoin:round;stroke-dasharray:none;stroke-opacity:1;paint-order:stroke markers fill;stop-color:#000000"
     id="path2165"
     sodipodi:type="arc"
     sodipodi:cx="107.12315"
     sodipodi:cy="133.74826"
     sodipodi:rx="94.173225"
     sodipodi:ry="94.173225"
     sodipodi:start="2.4897122"
     sodipodi:end="2.4810732"
     sodipodi:open="true"
     sodipodi:arc-type="arc"
     d="M 32.260679,190.88149 A 94.173225,94.173225 0 0 1 49.828371,59.009353 94.173225,94.173225 0 0 1 181.73814,76.292194 94.173225,94.173225 0 0 1 164.74024,208.23899 94.173225,94.173225 0 0 1 32.75704,191.52609" />
  <text
     xml:space="preserve"
     transform="matrix(0.75,0,0,0.75,-78.525879,291.25239)"
     id="text3117"
     style="font-weight:bold;font-size:48px;line-height:0;font-family:Molot;-inkscape-font-specification:'Molot Bold';text-align:center;letter-spacing:0px;word-spacing:0px;white-space:pre;shape-inside:url(#rect3119);display:inline;fill:#ffffff;fill-opacity:1;stroke:#ffffff;stroke-opacity:1"><tspan
       x="100.88867"
       y="-351.36777"
       id="tspan8413"><tspan
         style="font-family:'Open Sans';-inkscape-font-specification:'Open Sans Bold'"
         id="tspan8411">Nairobi LUG</tspan></tspan></text>
  <text
     xml:space="preserve"
     transform="matrix(0.75,0,0,0.75,-77.703019,531.76135)"
     id="text3117-6"
     style="font-weight:bold;font-size:48px;line-height:0;font-family:Molot;-inkscape-font-specification:'Molot Bold';text-align:center;letter-spacing:0px;word-spacing:0px;white-space:pre;shape-inside:url(#rect3119-3);display:inline;fill:#ffffff;fill-opacity:1"><tspan
       x="113.83789"
       y="-351.36777"
       id="tspan8417"><tspan
         style="font-family:'Open Sans';-inkscape-font-specification:'Open Sans Bold'"
         id="tspan8415">GNU/Linux</tspan></tspan></text>
</svg>
